<svg width="81" height="26" viewBox="0 0 81 26" fill="none" xmlns="http://www.w3.org/2000/svg">
<path d="M27.5 10.5C27.5 17.6797 20.1797 26 13 26C5.8203 26 0 20.6797 0 13.5C0 6.3203 5.8203 0 13 0C20.1797 0 27.5 3.3203 27.5 10.5Z" fill="#6871CC"/>
<path d="M23 9.71053C23 14.4049 18.272 20 13.55 20C8.82797 20 5 16.1944 5 11.5C5 6.80558 8.82797 3 13.55 3C18.272 3 23 5.01611 23 9.71053Z" fill="#BFC2E1"/>
<path d="M23 9.5C23 13.0899 20.0899 16 16.5 16C12.9101 16 10 13.0899 10 9.5C10 5.91015 12.0435 3 15.6333 3C19.2232 3 23 5.91015 23 9.5Z" fill="#D0D1E6"/>
<path d="M35.1058 6.496V15.536C35.1058 15.9093 35.1698 16.1707 35.2978 16.32C35.4258 16.4693 35.6391 16.544 35.9378 16.544C36.1191 16.544 36.2684 16.5333 36.3858 16.512C36.5031 16.48 36.6524 16.4373 36.8338 16.384L36.6418 17.824C36.4604 17.9307 36.2311 18.0107 35.9538 18.064C35.6871 18.128 35.4204 18.16 35.1538 18.16C34.3751 18.16 33.8044 17.9733 33.4418 17.6C33.0898 17.216 32.9138 16.608 32.9138 15.776V6.496H35.1058ZM43.0133 12.896C43.0133 12.4373 42.8799 12.08 42.6133 11.824C42.3573 11.568 42.0159 11.44 41.5893 11.44C41.1946 11.44 40.8479 11.5413 40.5493 11.744C40.2506 11.9467 40.0319 12.2827 39.8933 12.752L38.0213 12.176C38.2026 11.472 38.5973 10.9067 39.2053 10.48C39.8239 10.0533 40.6506 9.84 41.6853 9.84C42.3893 9.84 43.0026 9.952 43.5253 10.176C44.0479 10.3893 44.4533 10.7147 44.7413 11.152C45.0399 11.5893 45.1893 12.1387 45.1893 12.8V16.048C45.1893 16.4533 45.3813 16.656 45.7653 16.656C45.9466 16.656 46.1173 16.6293 46.2773 16.576L46.1493 17.936C45.8719 18.0747 45.5253 18.144 45.1093 18.144C44.7359 18.144 44.3999 18.08 44.1013 17.952C43.8026 17.824 43.5679 17.632 43.3973 17.376C43.2266 17.1093 43.1413 16.7787 43.1413 16.384V16.32L43.5253 16.256C43.4613 16.6613 43.2853 17.008 42.9973 17.296C42.7093 17.5733 42.3573 17.7867 41.9413 17.936C41.5359 18.0853 41.1146 18.16 40.6773 18.16C40.1333 18.16 39.6639 18.08 39.2693 17.92C38.8746 17.7493 38.5706 17.504 38.3573 17.184C38.1439 16.864 38.0373 16.4693 38.0373 16C38.0373 15.4027 38.2293 14.9173 38.6133 14.544C38.9973 14.16 39.5466 13.8987 40.2613 13.76L43.2693 13.152L43.2533 14.512L41.3333 14.896C40.9706 14.9707 40.6933 15.072 40.5013 15.2C40.3199 15.3173 40.2293 15.5147 40.2293 15.792C40.2293 16.0587 40.3253 16.2613 40.5173 16.4C40.7199 16.5387 40.9599 16.608 41.2373 16.608C41.4613 16.608 41.6799 16.5813 41.8933 16.528C42.1066 16.4747 42.2986 16.3893 42.4693 16.272C42.6399 16.1547 42.7733 15.9947 42.8693 15.792C42.9653 15.5893 43.0133 15.344 43.0133 15.056V12.896ZM54.9808 10L51.7488 18.496C51.4928 19.2213 51.2048 19.7973 50.8848 20.224C50.5754 20.6507 50.2128 20.96 49.7968 21.152C49.3914 21.344 48.9061 21.44 48.3408 21.44C47.9248 21.44 47.5408 21.3867 47.1888 21.28C46.8474 21.184 46.5488 21.056 46.2928 20.896L46.7568 19.312C46.9594 19.472 47.1728 19.584 47.3968 19.648C47.6208 19.7227 47.8768 19.76 48.1648 19.76C48.4634 19.76 48.7194 19.696 48.9328 19.568C49.1568 19.44 49.3434 19.184 49.4928 18.8L49.7648 18.112L48.8848 16.032L46.4368 10H48.8688L50.3888 14.8L50.8048 16.4L51.3008 14.704L52.7568 10H54.9808ZM60.1334 18.16C59.2907 18.16 58.5547 17.9947 57.9254 17.664C57.3067 17.3333 56.8267 16.8587 56.4854 16.24C56.144 15.6213 55.9734 14.8747 55.9734 14C55.9734 13.1253 56.144 12.3787 56.4854 11.76C56.8267 11.1413 57.3014 10.6667 57.9094 10.336C58.528 10.0053 59.232 9.84 60.0214 9.84C60.832 9.84 61.52 10.0053 62.0854 10.336C62.6507 10.656 63.0827 11.0987 63.3814 11.664C63.68 12.2187 63.8294 12.8533 63.8294 13.568C63.8294 13.7813 63.824 13.984 63.8134 14.176C63.8027 14.368 63.7867 14.5387 63.7654 14.688H57.3814V13.168H62.8054L61.7494 13.552C61.7494 12.88 61.5947 12.3627 61.2854 12C60.9867 11.6373 60.56 11.456 60.0054 11.456C59.6 11.456 59.248 11.552 58.9494 11.744C58.6614 11.936 58.4427 12.224 58.2934 12.608C58.144 12.9813 58.0694 13.456 58.0694 14.032C58.0694 14.5973 58.1494 15.0667 58.3094 15.44C58.48 15.8027 58.7147 16.0747 59.0134 16.256C59.3227 16.4373 59.6907 16.528 60.1174 16.528C60.5867 16.528 60.9654 16.4373 61.2534 16.256C61.5414 16.0747 61.7654 15.824 61.9254 15.504L63.6694 16.176C63.4987 16.592 63.2374 16.9493 62.8854 17.248C62.544 17.5467 62.1334 17.776 61.6534 17.936C61.184 18.0853 60.6774 18.16 60.1334 18.16ZM66.007 18V10H67.911L68.055 11.568C68.2683 11.0133 68.5777 10.5867 68.983 10.288C69.399 9.98933 69.9163 9.84 70.535 9.84C70.7163 9.84 70.8817 9.856 71.031 9.888C71.1803 9.92 71.303 9.96267 71.399 10.016L71.143 11.856C71.0363 11.8133 70.903 11.7813 70.743 11.76C70.5937 11.7387 70.3963 11.728 70.151 11.728C69.831 11.728 69.5217 11.808 69.223 11.968C68.9243 12.1173 68.679 12.352 68.487 12.672C68.295 12.9813 68.199 13.376 68.199 13.856V18H66.007ZM76.0582 18.16C75.2476 18.16 74.5062 18.016 73.8342 17.728C73.1729 17.44 72.6342 17.0347 72.2182 16.512L73.4822 15.232C73.7382 15.616 74.0796 15.9307 74.5062 16.176C74.9329 16.4213 75.4396 16.544 76.0262 16.544C76.4422 16.544 76.7729 16.4853 77.0182 16.368C77.2742 16.24 77.4022 16.0427 77.4022 15.776C77.4022 15.6053 77.3436 15.4613 77.2262 15.344C77.1089 15.216 76.8742 15.1147 76.5222 15.04L75.1142 14.752C74.1862 14.56 73.5249 14.272 73.1302 13.888C72.7462 13.4933 72.5542 12.9867 72.5542 12.368C72.5542 11.9307 72.6822 11.52 72.9382 11.136C73.2049 10.752 73.5996 10.4427 74.1222 10.208C74.6449 9.96267 75.2956 9.84 76.0742 9.84C76.8742 9.84 77.5676 9.968 78.1542 10.224C78.7516 10.4693 79.2209 10.8373 79.5622 11.328L78.2502 12.608C78.0156 12.2347 77.7062 11.952 77.3222 11.76C76.9489 11.5573 76.5542 11.456 76.1382 11.456C75.8396 11.456 75.5836 11.488 75.3702 11.552C75.1569 11.616 74.9969 11.7067 74.8902 11.824C74.7836 11.9307 74.7302 12.0693 74.7302 12.24C74.7302 12.4107 74.8049 12.56 74.9542 12.688C75.1036 12.8053 75.3756 12.9067 75.7702 12.992L77.4022 13.328C78.1916 13.488 78.7569 13.76 79.0982 14.144C79.4396 14.5173 79.6102 14.9707 79.6102 15.504C79.6102 16.016 79.4716 16.4747 79.1942 16.88C78.9276 17.2747 78.5276 17.5893 77.9942 17.824C77.4716 18.048 76.8262 18.16 76.0582 18.16Z" fill="#3A4294"/>
</svg>
