<svg width="28" height="26" viewBox="0 0 28 26" fill="none" xmlns="http://www.w3.org/2000/svg">
<path d="M27.5 10.5C27.5 17.6797 20.1797 26 13 26C5.8203 26 0 20.6797 0 13.5C0 6.3203 5.8203 0 13 0C20.1797 0 27.5 3.3203 27.5 10.5Z" fill="#6871CC"/>
<path d="M23 9.71053C23 14.4049 18.272 20 13.55 20C8.82797 20 5 16.1944 5 11.5C5 6.80558 8.82797 3 13.55 3C18.272 3 23 5.01611 23 9.71053Z" fill="#BFC2E1"/>
<path d="M23 9.5C23 13.0899 20.0899 16 16.5 16C12.9101 16 10 13.0899 10 9.5C10 5.91015 12.0435 3 15.6333 3C19.2232 3 23 5.91015 23 9.5Z" fill="#D0D1E6"/>
</svg>
