<svg width="85" height="25" viewBox="0 0 85 25" fill="none" xmlns="http://www.w3.org/2000/svg">
<path d="M25.7581 12.2047C25.7581 18.4814 19.9817 24.4094 12.856 24.4094C8.67154 24.4094 1 20.225 1 12.2047C1 5.5793 5.73036 0 12.856 0C24.0146 0 25.7581 7.67154 25.7581 12.2047Z" fill="#3A4294"/>
<path d="M23.3172 9.41507C23.3172 14.4223 18.2119 20.225 13.2047 20.225C8.1975 20.225 4.13835 16.5145 4.13835 11.5073C4.13835 6.5001 8.1975 2.09224 13.2047 2.09224C18.2119 2.09224 23.3172 4.40786 23.3172 9.41507Z" fill="#6871CC"/>
<path d="M20.1788 8.86448C20.1788 12.1384 16.8815 16.0405 13.5883 16.0405C10.2951 16.0405 7.62541 13.3864 7.62541 10.1125C7.62541 6.83854 10.2951 4.18448 13.5883 4.18448C16.8815 4.18448 20.1788 5.59054 20.1788 8.86448Z" fill="#BFC2E1"/>
<path d="M20.1788 8.71766C20.1788 11.2213 18.1493 13.2508 15.6457 13.2508C13.142 13.2508 11.1125 11.2213 11.1125 8.71766C11.1125 6.21405 12.5376 4.18448 15.0412 4.18448C17.5448 4.18448 20.1788 6.21405 20.1788 8.71766Z" fill="#D0D1E6"/>
<path d="M35.8581 18.5H33.2741V6.192H35.8581V18.5ZM38.5653 16.171C38.5653 14.675 39.6703 13.825 41.0643 13.621L43.0533 13.315C43.5123 13.247 43.6653 13.026 43.6653 12.737C43.6653 12.244 43.2403 11.819 42.4243 11.819C41.5233 11.819 41.0303 12.431 40.9793 13.06L38.7353 12.601C38.8373 11.394 39.9593 9.796 42.4413 9.796C45.1783 9.796 46.1813 11.326 46.1813 13.06V17.191C46.1813 17.854 46.2663 18.415 46.2833 18.5H43.9543C43.9373 18.432 43.8693 18.126 43.8693 17.548C43.4273 18.262 42.6113 18.738 41.4893 18.738C39.6363 18.738 38.5653 17.514 38.5653 16.171ZM42.1183 16.868C42.8833 16.868 43.6653 16.494 43.6653 15.185V14.811L42.0673 15.066C41.5233 15.151 41.1153 15.406 41.1153 16.001C41.1153 16.443 41.4043 16.868 42.1183 16.868ZM52.4416 21.747H49.7216L51.6426 17.361L48.0896 10.051H50.9796L53.0366 14.573L54.9066 10.051H57.6436L52.4416 21.747ZM61.498 13.264H64.881C64.847 12.618 64.405 11.836 63.181 11.836C62.093 11.836 61.549 12.635 61.498 13.264ZM65.068 15.457L67.227 16.069C66.819 17.531 65.476 18.755 63.334 18.755C61.005 18.755 58.931 17.089 58.931 14.25C58.931 11.53 60.954 9.796 63.147 9.796C65.765 9.796 67.38 11.411 67.38 14.131C67.38 14.488 67.346 14.879 67.329 14.93H61.447C61.498 15.882 62.365 16.562 63.368 16.562C64.303 16.562 64.83 16.12 65.068 15.457ZM75.4311 10.051V12.601C75.1421 12.533 74.8701 12.516 74.6151 12.516C73.5781 12.516 72.6431 13.128 72.6431 14.811V18.5H70.0591V10.051H72.5581V11.19C73.0001 10.238 74.0711 9.966 74.7511 9.966C75.0061 9.966 75.2611 10 75.4311 10.051ZM77.388 16.103L79.581 15.712C79.615 16.29 80.023 16.851 80.907 16.851C81.57 16.851 81.893 16.494 81.893 16.12C81.893 15.814 81.689 15.559 81.06 15.423L80.091 15.202C78.289 14.811 77.575 13.791 77.575 12.601C77.575 11.054 78.935 9.796 80.822 9.796C83.27 9.796 84.12 11.326 84.205 12.312L82.063 12.703C81.995 12.142 81.638 11.666 80.856 11.666C80.363 11.666 79.938 11.955 79.938 12.397C79.938 12.754 80.227 12.958 80.601 13.026L81.723 13.247C83.474 13.604 84.324 14.658 84.324 15.899C84.324 17.344 83.219 18.755 80.958 18.755C78.306 18.755 77.456 17.038 77.388 16.103Z" fill="url(#paint0_linear_2498_23)"/>
<defs>
<linearGradient id="paint0_linear_2498_23" x1="30" y1="21.5" x2="90" y2="23" gradientUnits="userSpaceOnUse">
<stop stop-color="#3A4294"/>
<stop offset="1" stop-color="#B12F30"/>
</linearGradient>
</defs>
</svg>
